<svg xmlns="http://www.w3.org/2000/svg">
    <symbol id="icon" viewBox="0 0 30 30">
        <path d="M28.4397 17.933C28.6339 16.9955 28.7545 15.9978 28.7545 15C28.7545 7.39955 22.6004 1.25223 15.0067 1.25223C14.0089 1.25223 13.0179 1.36607 12.0737 1.56696C10.8013 0.582589 9.22098 0 7.5 0C3.36161 0 0 3.36161 0 7.5C0 9.22098 0.582589 10.8013 1.56027 12.067C1.36607 13.0045 1.24554 14.0022 1.24554 15C1.24554 22.6004 7.39955 28.7478 14.9933 28.7478C15.9911 28.7478 16.9821 28.6339 17.9263 28.433C19.1987 29.4107 20.779 29.9933 22.4933 29.9933C26.6317 29.9933 29.9933 26.6317 29.9933 22.4933C30 20.779 29.4174 19.1987 28.4397 17.933V17.933ZM15.4085 24.0603C11.0156 24.0603 7.33929 22.1049 7.33929 19.7076C7.33929 18.6362 7.94196 17.6585 9.31473 17.6585C11.404 17.6585 11.5982 20.6652 15.2143 20.6652C16.9353 20.6652 18.0469 19.9018 18.0469 18.904C18.0469 17.6518 16.9754 17.4576 15.2344 17.029C11.0491 15.9978 7.34598 15.5558 7.34598 11.1897C7.34598 7.22545 11.2701 5.75893 14.6518 5.75893C18.3415 5.75893 22.0714 7.22545 22.0714 9.46875C22.0714 10.6004 21.308 11.5982 20.0424 11.5982C18.1473 11.5982 18.0871 9.35491 15.0201 9.35491C13.2991 9.35491 12.2076 9.82366 12.2076 10.8616C12.2076 12.1875 13.6004 12.3214 16.8348 13.0714C19.6071 13.6942 22.9085 14.8661 22.9085 18.2679C22.9085 22.2254 19.0848 24.0603 15.4085 24.0603V24.0603Z"/>
    </symbol>
</svg>