<?xml version="1.0" encoding="UTF-8"?>
<!DOCTYPE svg PUBLIC "-//W3C//DTD SVG 1.1//EN" "http://www.w3.org/Graphics/SVG/1.1/DTD/svg11.dtd">
<svg xmlns="http://www.w3.org/2000/svg" version="1.1" width="322px" height="246px" style="shape-rendering:geometricPrecision; text-rendering:geometricPrecision; image-rendering:optimizeQuality; fill-rule:evenodd; clip-rule:evenodd" xmlns:xlink="http://www.w3.org/1999/xlink">
<g><path style="opacity:0.97" fill="#000000" d="M 137.5,-0.5 C 138.5,-0.5 139.5,-0.5 140.5,-0.5C 161.136,37.4358 182.303,75.1025 204,112.5C 205.301,114.365 205.635,116.365 205,118.5C 197.914,130.337 191.08,142.337 184.5,154.5C 183.998,155.521 183.332,155.688 182.5,155C 167.873,129.581 153.373,104.081 139,78.5C 123.626,105.415 108.126,132.248 92.5,159C 122.167,159.333 151.833,159.667 181.5,160C 173.967,172.705 166.633,185.538 159.5,198.5C 129.934,199.828 100.434,199.828 71,198.5C 61.6362,213.897 52.8028,229.564 44.5,245.5C 29.5,245.5 14.5,245.5 -0.5,245.5C -0.5,244.5 -0.5,243.5 -0.5,242.5C 45.7377,161.698 91.7377,80.6977 137.5,-0.5 Z"/></g>
<g><path style="opacity:0.982" fill="#00a023" d="M 144.5,-0.5 C 203.5,-0.5 262.5,-0.5 321.5,-0.5C 321.5,0.166667 321.5,0.833333 321.5,1.5C 282.861,69.4374 244.194,137.437 205.5,205.5C 244.161,206.5 282.828,206.833 321.5,206.5C 321.5,219.5 321.5,232.5 321.5,245.5C 260.167,245.5 198.833,245.5 137.5,245.5C 176.615,176.775 215.615,107.942 254.5,39C 225.167,38.6667 195.833,38.3333 166.5,38C 158.939,25.2783 151.606,12.4449 144.5,-0.5 Z"/></g>
</svg>
