<svg xmlns="http://www.w3.org/2000/svg">
    <symbol id="icon" viewBox="0 0 59 50">
        <path d="M37.6447 3.98395L26.0282 47.7327C25.5835 49.3927 23.9772 50.3497 22.4344 49.881C20.8915 49.4025 20.0022 47.6741 20.4378 46.014L32.0543 2.26725C32.499 0.607762 34.1053 -0.353126 35.6481 0.121068C37.1909 0.595165 38.0803 2.32486 37.6447 3.98395ZM47.065 11.8556L57.2294 22.7926C58.3638 24.0132 58.3638 25.9857 57.2294 27.2064L47.065 38.1433C45.9305 39.364 44.0973 39.364 42.9629 38.1433C41.8285 36.9227 41.8285 34.9501 42.9629 33.7295L51.0672 24.9995L42.9629 16.2695C41.8285 15.0488 41.8285 13.0763 42.9629 11.8556C44.0973 10.635 45.9305 10.635 47.065 11.8556ZM15.1196 16.2695L7.01074 24.9995L15.1196 33.7295C16.254 34.9501 16.254 36.9227 15.1196 38.1433C13.9852 39.364 12.1519 39.364 11.0175 38.1433L0.850545 27.2064C-0.283515 25.9857 -0.283515 24.0132 0.850545 22.7926L11.0175 11.8556C12.1519 10.635 13.9852 10.635 15.1196 11.8556C16.254 13.0763 16.254 15.0488 15.1196 16.2695Z"/>
    </symbol>
</svg>
