<svg xmlns="http://www.w3.org/2000/svg">
    <symbol id="icon" viewBox="0 0 63 50">
        <path d="M39.0625 0C41.6504 0 43.75 2.09863 43.75 4.6875V14.0625C43.75 16.6504 41.6504 18.75 39.0625 18.75H34.375V21.875H59.375C61.1035 21.875 62.5 23.2715 62.5 25C62.5 26.7285 61.1035 28.125 59.375 28.125H50V31.25H54.6875C57.2754 31.25 59.375 33.3496 59.375 35.9375V45.3125C59.375 47.9004 57.2754 50 54.6875 50H39.0625C36.4746 50 34.375 47.9004 34.375 45.3125V35.9375C34.375 33.3496 36.4746 31.25 39.0625 31.25H43.75V28.125H18.75V31.25H23.4375C26.0254 31.25 28.125 33.3496 28.125 35.9375V45.3125C28.125 47.9004 26.0254 50 23.4375 50H7.8125C5.22363 50 3.125 47.9004 3.125 45.3125V35.9375C3.125 33.3496 5.22363 31.25 7.8125 31.25H12.5V28.125H3.125C1.39941 28.125 0 26.7285 0 25C0 23.2715 1.39941 21.875 3.125 21.875H28.125V18.75H23.4375C20.8496 18.75 18.75 16.6504 18.75 14.0625V4.6875C18.75 2.09863 20.8496 0 23.4375 0H39.0625ZM25 6.25V12.5H37.5V6.25H25ZM21.875 43.75V37.5H9.375V43.75H21.875ZM40.625 37.5V43.75H53.125V37.5H40.625Z"/>
    </symbol>
</svg>
