<svg xmlns="http://www.w3.org/2000/svg">
    <symbol id="icon" viewBox="0 0 41 50">
        <path d="M40.6598 7.8125V12.5C40.6598 16.8164 31.5568 20.3125 20.3299 20.3125C9.10309 20.3125 0 16.8164 0 12.5V7.8125C0 3.49805 9.10309 0 20.3299 0C31.5568 0 40.6598 3.49805 40.6598 7.8125ZM35.6863 20.9668C37.4924 20.2441 39.3075 19.3164 40.6598 18.1738V28.125C40.6598 32.4414 31.5568 35.9375 20.3299 35.9375C9.10309 35.9375 0 32.4414 0 28.125V18.1738C1.35503 19.3164 3.08761 20.2441 4.97811 20.9668C9.045 22.5293 14.476 23.4375 20.3299 23.4375C26.1839 23.4375 31.6112 22.5293 35.6863 20.9668ZM4.97811 36.5918C9.045 38.1543 14.476 39.0625 20.3299 39.0625C26.1839 39.0625 31.6112 38.1543 35.6863 36.5918C37.4924 35.8691 39.3075 34.9414 40.6598 33.7988V42.1875C40.6598 46.5039 31.5568 50 20.3299 50C9.10309 50 0 46.5039 0 42.1875V33.7988C1.35503 34.9414 3.08761 35.8691 4.97811 36.5918Z"/>
    </symbol>
</svg>
